<svg width="19" height="19" viewBox="0 0 19 19" fill="none" xmlns="http://www.w3.org/2000/svg">
<path fill-rule="evenodd" clip-rule="evenodd" d="M1.42177 7.34581C1.42177 4.07405 4.07405 1.42177 7.34581 1.42177C10.6176 1.42177 13.2698 4.07405 13.2698 7.34581C13.2698 10.6176 10.6176 13.2698 7.34581 13.2698C4.07405 13.2698 1.42177 10.6176 1.42177 7.34581ZM7.34581 0C3.28883 0 0 3.28883 0 7.34581C0 11.4028 3.28883 14.6916 7.34581 14.6916C8.986 14.6916 10.5006 14.1541 11.7232 13.2455L17.2694 18.7918C17.5471 19.0694 17.9972 19.0694 18.2748 18.7918C18.5524 18.5142 18.5524 18.0641 18.2748 17.7864L12.7785 12.2902C13.967 10.9851 14.6916 9.25006 14.6916 7.34581C14.6916 3.28883 11.4028 0 7.34581 0Z" fill="#4F647D"/>
</svg>
