<svg width="15" height="14" viewBox="0 0 15 14" fill="none" xmlns="http://www.w3.org/2000/svg">
<path fill-rule="evenodd" clip-rule="evenodd" d="M0.601779 8.87427C0.934132 8.87427 1.20356 9.14369 1.20356 9.47605V11.0808C1.20356 11.3468 1.30923 11.6019 1.49732 11.79C1.68541 11.9781 1.94052 12.0838 2.20652 12.0838H11.835C12.101 12.0838 12.3561 11.9781 12.5442 11.79C12.7323 11.6019 12.8379 11.3468 12.8379 11.0808V9.47605C12.8379 9.14369 13.1074 8.87427 13.4397 8.87427C13.7721 8.87427 14.0415 9.14369 14.0415 9.47605V11.0808C14.0415 11.666 13.809 12.2272 13.3952 12.641C12.9814 13.0548 12.4202 13.2873 11.835 13.2873H2.20652C1.62132 13.2873 1.06008 13.0548 0.646275 12.641C0.232472 12.2272 0 11.666 0 11.0808V9.47605C0 9.14369 0.269425 8.87427 0.601779 8.87427Z" fill="#4F647D"/>
<path fill-rule="evenodd" clip-rule="evenodd" d="M7.44616 10.6558C7.21115 10.8908 6.83013 10.8908 6.59512 10.6558L2.58326 6.64392C2.34825 6.40891 2.34825 6.02788 2.58326 5.79287C2.81827 5.55786 3.1993 5.55786 3.43431 5.79287L7.02064 9.37921L10.607 5.79287C10.842 5.55786 11.223 5.55786 11.458 5.79287C11.693 6.02788 11.693 6.40891 11.458 6.64392L7.44616 10.6558Z" fill="#4F647D"/>
<path fill-rule="evenodd" clip-rule="evenodd" d="M7.02078 10.832C6.68843 10.832 6.419 10.5626 6.419 10.2303L6.419 0.601794C6.419 0.269441 6.68843 1.51771e-05 7.02078 1.52062e-05C7.35313 1.52352e-05 7.62256 0.269441 7.62256 0.601794L7.62256 10.2303C7.62256 10.5626 7.35313 10.832 7.02078 10.832Z" fill="#4F647D"/>
</svg>
