<svg width="21" height="21" viewBox="0 0 21 21" fill="none" xmlns="http://www.w3.org/2000/svg">
<path fill-rule="evenodd" clip-rule="evenodd" d="M14.2916 6.68679C14.607 7.00226 14.607 7.51373 14.2916 7.82919L7.82919 14.2916C7.51373 14.607 7.00226 14.607 6.68679 14.2916C6.37133 13.9761 6.37133 13.4646 6.68679 13.1492L13.1492 6.68679C13.4646 6.37133 13.9761 6.37133 14.2916 6.68679Z" fill="#127BF5"/>
<path d="M7.79634 8.335C8.09377 8.335 8.33487 8.09389 8.33487 7.79647C8.33487 7.49904 8.09377 7.25793 7.79634 7.25793C7.49892 7.25793 7.25781 7.49904 7.25781 7.79647C7.25781 8.09389 7.49892 8.335 7.79634 8.335Z" fill="#127BF5"/>
<path fill-rule="evenodd" clip-rule="evenodd" d="M7.79652 8.06579C7.94523 8.06579 8.06579 7.94523 8.06579 7.79652C8.06579 7.64781 7.94523 7.52726 7.79652 7.52726C7.64781 7.52726 7.52726 7.64781 7.52726 7.79652C7.52726 7.94523 7.64781 8.06579 7.79652 8.06579ZM6.4502 7.79652C6.4502 7.05297 7.05297 6.4502 7.79652 6.4502C8.54008 6.4502 9.14285 7.05297 9.14285 7.79652C9.14285 8.54008 8.54008 9.14285 7.79652 9.14285C7.05297 9.14285 6.4502 8.54008 6.4502 7.79652Z" fill="#127BF5"/>
<path d="M13.1821 13.7204C13.4795 13.7204 13.7206 13.4793 13.7206 13.1818C13.7206 12.8844 13.4795 12.6433 13.1821 12.6433C12.8847 12.6433 12.6436 12.8844 12.6436 13.1818C12.6436 13.4793 12.8847 13.7204 13.1821 13.7204Z" fill="#127BF5"/>
<path fill-rule="evenodd" clip-rule="evenodd" d="M13.1823 13.4512C13.331 13.4512 13.4515 13.3306 13.4515 13.1819C13.4515 13.0332 13.331 12.9126 13.1823 12.9126C13.0336 12.9126 12.913 13.0332 12.913 13.1819C12.913 13.3306 13.0336 13.4512 13.1823 13.4512ZM11.8359 13.1819C11.8359 12.4383 12.4387 11.8356 13.1823 11.8356C13.9258 11.8356 14.5286 12.4383 14.5286 13.1819C14.5286 13.9255 13.9258 14.5282 13.1823 14.5282C12.4387 14.5282 11.8359 13.9255 11.8359 13.1819Z" fill="#127BF5"/>
<path fill-rule="evenodd" clip-rule="evenodd" d="M10.5 1.61559C10.2942 1.61559 10.0904 1.65628 9.90032 1.73531C9.71027 1.81435 9.53772 1.93017 9.39258 2.07612L9.39098 2.07773L8.63704 2.83167L8.63543 2.83328C8.04053 3.42484 7.23581 3.75711 6.39685 3.75759H5.31933C4.90513 3.75759 4.5079 3.92213 4.21501 4.21501C3.92213 4.5079 3.75759 4.90513 3.75759 5.31933V6.39639C3.75711 7.23535 3.42484 8.04053 2.83328 8.63543L2.83167 8.63704L2.07773 9.39098L2.07612 9.39258C1.93017 9.53772 1.81435 9.71027 1.73531 9.90032C1.65628 10.0904 1.61559 10.2942 1.61559 10.5C1.61559 10.7058 1.65628 10.9096 1.73531 11.0997C1.81435 11.2897 1.93017 11.4623 2.07612 11.6074L2.07773 11.609L2.83328 12.3646C3.42484 12.9595 3.75711 13.7642 3.75759 14.6031V15.6807C3.75759 16.0949 3.92213 16.4921 4.21501 16.785C4.5079 17.0779 4.90513 17.2424 5.31933 17.2424H6.39639C7.23535 17.2429 8.04053 17.5752 8.63543 18.1667L8.63704 18.1683L9.39259 18.9239C9.53771 19.0698 9.71027 19.1856 9.90032 19.2647C10.0904 19.3437 10.2942 19.3844 10.5 19.3844C10.7058 19.3844 10.9096 19.3437 11.0997 19.2647C11.2897 19.1856 11.4623 19.0698 11.6074 18.9239L11.609 18.9223L12.363 18.1683L12.3646 18.1667C12.9595 17.5752 13.7642 17.2429 14.6031 17.2424H15.6807C16.0949 17.2424 16.4921 17.0779 16.785 16.785C17.0779 16.4921 17.2424 16.0949 17.2424 15.6807V14.6036C17.2429 13.7646 17.5752 12.9595 18.1667 12.3646L18.1683 12.363L18.9223 11.609L18.9239 11.6074C19.0698 11.4623 19.1856 11.2897 19.2647 11.0997C19.3437 10.9096 19.3844 10.7058 19.3844 10.5C19.3844 10.2942 19.3437 10.0904 19.2647 9.90032C19.1856 9.71027 19.0698 9.53771 18.9239 9.39258L18.9223 9.39098L18.1683 8.63704L18.1667 8.63543C17.5752 8.04053 17.2429 7.23581 17.2424 6.39685V5.31933C17.2424 4.90513 17.0779 4.5079 16.785 4.21501C16.4921 3.92213 16.0949 3.75759 15.6807 3.75759H14.6036C13.7646 3.75711 12.9595 3.42484 12.3646 2.83328L12.363 2.83167L11.609 2.07773L11.6074 2.07612C11.4623 1.93017 11.2897 1.81435 11.0997 1.73531C10.9096 1.65628 10.7058 1.61559 10.5 1.61559ZM2.142 5.31933C2.142 4.47665 2.47675 3.66848 3.07262 3.07262C3.66848 2.47675 4.47665 2.142 5.31933 2.142H6.39593C6.396 2.142 6.39586 2.142 6.39593 2.142C6.80791 2.14171 7.20329 1.97864 7.49558 1.68834C7.4958 1.68812 7.49603 1.6879 7.49625 1.68767L8.24698 0.936941C8.24725 0.936672 8.24752 0.936403 8.24778 0.936134C8.54289 0.639578 8.89366 0.40422 9.27996 0.243571C9.66662 0.0827765 10.0812 0 10.5 0C10.9188 0 11.3334 0.0827768 11.72 0.243571C12.1064 0.404225 12.4571 0.639595 12.7522 0.936167C12.7525 0.936425 12.7528 0.936683 12.753 0.936941L13.5038 1.68767C13.504 1.68792 13.5042 1.68816 13.5045 1.6884C13.7967 1.97861 14.1917 2.14164 14.6036 2.142H15.6807C16.5233 2.142 17.3315 2.47675 17.9274 3.07262C18.5232 3.66848 18.858 4.47665 18.858 5.31933V6.39593C18.8582 6.808 19.0213 7.20327 19.3117 7.49561C19.3119 7.49582 19.3121 7.49604 19.3123 7.49625L20.0631 8.24698C20.0633 8.24726 20.0636 8.24755 20.0639 8.24783C20.3605 8.54293 20.5958 8.89368 20.7564 9.27996C20.9172 9.66662 21 10.0812 21 10.5C21 10.9188 20.9172 11.3334 20.7564 11.72C20.5958 12.1063 20.3605 12.4571 20.0639 12.7522C20.0636 12.7524 20.0633 12.7527 20.0631 12.753L19.3123 13.5038C19.3121 13.504 19.3118 13.5042 19.3116 13.5045C19.0213 13.7968 18.8582 14.192 18.858 14.6041V15.6807C18.858 16.5233 18.5232 17.3315 17.9274 17.9274C17.3315 18.5232 16.5233 18.858 15.6807 18.858H14.6041C14.192 18.8582 13.7968 19.0213 13.5045 19.3116C13.5042 19.3118 13.504 19.3121 13.5038 19.3123L12.753 20.0631C12.7527 20.0633 12.7524 20.0636 12.7522 20.0639C12.4571 20.3605 12.1063 20.5958 11.72 20.7564C11.3334 20.9172 10.9188 21 10.5 21C10.0812 21 9.66662 20.9172 9.27996 20.7564C8.89368 20.5958 8.54293 20.3605 8.24783 20.0639C8.24755 20.0636 8.24726 20.0633 8.24698 20.0631L7.49625 19.3123C7.49604 19.3121 7.49582 19.3119 7.49561 19.3117C7.20327 19.0213 6.808 18.8582 6.39593 18.858H5.31933C4.47665 18.858 3.66848 18.5232 3.07262 17.9274C2.47675 17.3315 2.142 16.5233 2.142 15.6807V14.6041C2.14164 14.1922 1.97861 13.7967 1.6884 13.5045C1.68816 13.5042 1.68792 13.504 1.68767 13.5038L0.936941 12.753C0.936683 12.7528 0.936425 12.7525 0.936167 12.7522C0.639595 12.4571 0.404225 12.1064 0.243571 11.72C0.0827768 11.3334 0 10.9188 0 10.5C0 10.0812 0.0827765 9.66662 0.243571 9.27996C0.40422 8.89366 0.639578 8.54289 0.936134 8.24778C0.936403 8.24752 0.936672 8.24725 0.936941 8.24698L1.68767 7.49625C1.6879 7.49603 1.68812 7.4958 1.68834 7.49558C1.97864 7.20329 2.14171 6.80813 2.142 6.39615C2.142 6.39608 2.142 6.39622 2.142 6.39615V5.31933Z" fill="#127BF5"/>
</svg>
