<svg width="30" height="29" viewBox="0 0 30 29" fill="none" xmlns="http://www.w3.org/2000/svg">
<path fill-rule="evenodd" clip-rule="evenodd" d="M2.14654 0.0774823C2.29278 0.0261965 2.44663 0 2.6016 0H26.4349C26.5899 0 26.7437 0.0261965 26.89 0.0774823C27.352 0.239531 27.7709 0.505189 28.1144 0.854104C28.4579 1.20302 28.717 1.62594 28.8719 2.09046C29.0267 2.55497 29.0732 3.04877 29.0077 3.53403C28.9422 4.01928 28.7666 4.48311 28.4942 4.88998C28.4564 4.94631 28.4146 4.99977 28.369 5.04992L19.5599 14.7399V27.0417C19.5599 27.5625 19.2657 28.0386 18.7998 28.2715C18.334 28.5044 17.7766 28.4542 17.3599 28.1417L10.0266 22.6417C9.68036 22.382 9.4766 21.9745 9.4766 21.5417V14.7399L0.667512 5.04992C0.621915 4.99977 0.580089 4.94631 0.542377 4.88998C0.26996 4.48311 0.0942867 4.01928 0.0288127 3.53403C-0.0366613 3.04878 0.00980014 2.55498 0.164641 2.09046C0.319482 1.62594 0.578592 1.20302 0.922122 0.854104C1.26565 0.505188 1.68449 0.23953 2.14654 0.0774823ZM2.91846 2.75C2.90565 2.76046 2.89339 2.77163 2.88173 2.78346C2.83266 2.83331 2.79564 2.89373 2.77352 2.96009C2.7514 3.02644 2.74476 3.09699 2.75412 3.16631C2.76042 3.21305 2.77389 3.2584 2.79392 3.3008L11.869 13.2834C12.0991 13.5365 12.2266 13.8663 12.2266 14.2083V20.8542L16.8099 24.2917V14.2083C16.8099 13.8663 16.9374 13.5365 17.1675 13.2834L26.2426 3.3008C26.2626 3.2584 26.2761 3.21305 26.2824 3.16631C26.2918 3.097 26.2851 3.02645 26.263 2.96009C26.2409 2.89372 26.2039 2.83331 26.1548 2.78346C26.1431 2.77163 26.1309 2.76046 26.1181 2.75H2.91846Z" fill="#4F647D"/>
</svg>
