<svg width="22" height="22" viewBox="0 0 22 22" fill="none" xmlns="http://www.w3.org/2000/svg">
<circle cx="11" cy="11" r="11" fill="#127BF5"/>
<path fill-rule="evenodd" clip-rule="evenodd" d="M10.5983 6.64179C10.036 6.64179 9.51484 6.84296 9.14581 7.17363C8.78024 7.50121 8.6 7.91972 8.6 8.32835C8.6 8.78172 8.24183 9.14925 7.8 9.14925C7.35817 9.14925 7 8.78172 7 8.32835C7 7.40694 7.4094 6.5499 8.0934 5.93699C8.77395 5.32718 9.67636 5 10.5983 5H11.3978C12.3198 5 13.2222 5.32718 13.9027 5.93699C14.581 6.54478 14.9893 7.39267 14.9961 8.30531C15.0299 9.01424 14.845 9.71724 14.4666 10.3107C14.0929 10.8967 13.5493 11.346 12.9126 11.5914C12.6253 11.7421 12.3336 12.0403 12.1152 12.4969C11.8902 12.9675 11.7731 13.5472 11.7974 14.1448C11.8158 14.5978 11.4729 14.9804 11.0314 14.9993C10.59 15.0182 10.2172 14.6663 10.1988 14.2133C10.1642 13.3639 10.3271 12.5091 10.6789 11.7736C11.0299 11.0398 11.5681 10.4305 12.2523 10.0951C12.2768 10.0831 12.3018 10.0724 12.3273 10.063C12.6519 9.94368 12.9336 9.71623 13.1277 9.41174C13.3221 9.10702 13.4174 8.74273 13.3974 8.37398C13.3966 8.35879 13.3962 8.34357 13.3962 8.32835C13.3962 7.91972 13.2159 7.50121 12.8503 7.17363C12.4813 6.84296 11.9602 6.64179 11.3978 6.64179H10.5983Z" fill="white"/>
<circle cx="11" cy="17" r="1" fill="white"/>
</svg>
