<svg width="15" height="16" viewBox="0 0 15 16" fill="none" xmlns="http://www.w3.org/2000/svg">
<path fill-rule="evenodd" clip-rule="evenodd" d="M0.168977 0.606477C0.394279 0.381174 0.759567 0.381174 0.984869 0.606477L14.831 14.4526C15.0563 14.6779 15.0563 15.0432 14.831 15.2685C14.6057 15.4938 14.2404 15.4938 14.0151 15.2685L0.168977 1.42237C-0.0563256 1.19707 -0.0563256 0.831779 0.168977 0.606477Z" fill="#4F647D"/>
<path fill-rule="evenodd" clip-rule="evenodd" d="M4.65929 2.33215C4.7486 2.11661 4.95895 1.97607 5.19227 1.97607H12.5C12.565 1.97607 12.6295 1.98707 12.6909 2.00858C12.8848 2.07658 13.0605 2.18804 13.2046 2.33444C13.3488 2.48084 13.4575 2.65829 13.5225 2.85319C13.5874 3.04809 13.6069 3.25528 13.5794 3.45888C13.552 3.66249 13.4783 3.8571 13.364 4.02781C13.3481 4.05145 13.3306 4.07388 13.3115 4.09492L10.1969 7.52107C10.0907 7.63784 9.94137 7.70602 9.78361 7.70976C9.62586 7.71349 9.47346 7.65245 9.36191 7.54084L4.78422 2.96084C4.61928 2.79582 4.56997 2.5477 4.65929 2.33215ZM6.58458 3.12992L9.75017 6.2971L12.4193 3.36103C12.4277 3.34324 12.4333 3.32421 12.436 3.3046C12.4399 3.27551 12.4371 3.24591 12.4278 3.21807C12.4185 3.19022 12.403 3.16487 12.3824 3.14396C12.3775 3.13899 12.3724 3.13431 12.367 3.12992H6.58458ZM2.69187 2.31912C2.89921 2.56106 2.87116 2.92526 2.62922 3.1326C2.59347 3.16324 2.57021 3.20592 2.56383 3.25256C2.55874 3.28974 2.56467 3.32736 2.58055 3.36091L6.38838 7.54953C6.48493 7.65573 6.53842 7.79409 6.53842 7.93761V10.7261L8.4615 12.1684V9.47607C8.4615 9.15745 8.71979 8.89915 9.03842 8.89915C9.35704 8.89915 9.61534 9.15745 9.61534 9.47607V13.3222C9.61534 13.5408 9.49188 13.7405 9.29643 13.8382C9.10098 13.936 8.86708 13.9149 8.69227 13.7838L5.61534 11.4761C5.47007 11.3671 5.38457 11.1961 5.38457 11.0145V8.16066L1.68845 4.09492C1.66937 4.07394 1.65187 4.05157 1.63608 4.02801C1.45263 3.75425 1.37597 3.4227 1.42062 3.0962C1.46528 2.76969 1.62816 2.47091 1.87839 2.25647C2.12032 2.04913 2.48453 2.07718 2.69187 2.31912Z" fill="#4F647D"/>
</svg>
