<svg width="20" height="16" viewBox="0 0 20 16" fill="none" xmlns="http://www.w3.org/2000/svg">
<path fill-rule="evenodd" clip-rule="evenodd" d="M9.26915 0.0503364C9.42855 -0.0167788 9.60828 -0.0167788 9.76768 0.0503364L18.6436 3.78756C18.9705 3.92523 19.124 4.30187 18.9863 4.62882C18.8487 4.95578 18.472 5.10923 18.1451 4.97156L9.51841 1.33929L0.891765 4.97156C0.564813 5.10923 0.188167 4.95578 0.050503 4.62882C-0.0871611 4.30187 0.0662872 3.92523 0.393239 3.78756L9.26915 0.0503364ZM1.81059 5.29453C1.45584 5.29453 1.16825 5.58212 1.16825 5.93687C1.16825 6.29162 1.45584 6.57921 1.81059 6.57921H2.02469V14.7154H1.81059C1.45584 14.7154 1.16825 15.0029 1.16825 15.3577C1.16825 15.7124 1.45584 16 1.81059 16H2.65498L2.66703 16.0001L2.67907 16H16.358L16.37 16.0001L16.3821 16H17.2266C17.5814 16 17.869 15.7124 17.869 15.3577C17.869 15.0029 17.5814 14.7154 17.2266 14.7154H17.0124V6.57921H17.2266C17.5814 6.57921 17.869 6.29162 17.869 5.93687C17.869 5.58212 17.5814 5.29453 17.2266 5.29453H16.37H2.66703H1.81059ZM15.7277 6.57921V14.7154H3.30936V6.57921H15.7277ZM6.73511 9.36262C6.73511 9.00787 6.44753 8.72029 6.09278 8.72029C5.73803 8.72029 5.45044 9.00787 5.45044 9.36262V11.932C5.45044 12.2867 5.73803 12.5743 6.09278 12.5743C6.44753 12.5743 6.73511 12.2867 6.73511 11.932V9.36262ZM9.51853 8.72029C9.87328 8.72029 10.1609 9.00787 10.1609 9.36262V11.932C10.1609 12.2867 9.87328 12.5743 9.51853 12.5743C9.16378 12.5743 8.87619 12.2867 8.87619 11.932V9.36262C8.87619 9.00787 9.16378 8.72029 9.51853 8.72029ZM13.5866 9.36262C13.5866 9.00787 13.299 8.72029 12.9443 8.72029C12.5895 8.72029 12.3019 9.00787 12.3019 9.36262V11.932C12.3019 12.2867 12.5895 12.5743 12.9443 12.5743C13.299 12.5743 13.5866 12.2867 13.5866 11.932V9.36262Z" fill="#127BF5"/>
</svg>
