<svg width="15" height="14" viewBox="0 0 15 14" fill="none" xmlns="http://www.w3.org/2000/svg">
<path fill-rule="evenodd" clip-rule="evenodd" d="M0.601779 8.87433C0.934132 8.87433 1.20356 9.14375 1.20356 9.47611V11.0809C1.20356 11.3469 1.30923 11.602 1.49732 11.7901C1.68541 11.9781 1.94052 12.0838 2.20652 12.0838H11.835C12.101 12.0838 12.3561 11.9781 12.5442 11.7901C12.7323 11.602 12.8379 11.3469 12.8379 11.0809V9.47611C12.8379 9.14375 13.1074 8.87433 13.4397 8.87433C13.7721 8.87433 14.0415 9.14375 14.0415 9.47611V11.0809C14.0415 11.6661 13.809 12.2273 13.3952 12.6411C12.9814 13.0549 12.4202 13.2874 11.835 13.2874H2.20652C1.62132 13.2874 1.06008 13.0549 0.646275 12.6411C0.232472 12.2273 0 11.6661 0 11.0809V9.47611C0 9.14375 0.269425 8.87433 0.601779 8.87433Z" fill="#4F647D"/>
<path fill-rule="evenodd" clip-rule="evenodd" d="M6.59534 0.176257C6.83035 -0.0587523 7.21138 -0.0587523 7.44638 0.176257L11.4582 4.18812C11.6933 4.42312 11.6933 4.80415 11.4582 5.03916C11.2232 5.27417 10.8422 5.27417 10.6072 5.03916L7.02086 1.45282L3.43453 5.03916C3.19952 5.27417 2.81849 5.27417 2.58348 5.03916C2.34847 4.80415 2.34847 4.42312 2.58348 4.18812L6.59534 0.176257Z" fill="#4F647D"/>
<path fill-rule="evenodd" clip-rule="evenodd" d="M7.02072 0C7.35308 0 7.6225 0.269425 7.6225 0.601779V10.2302C7.6225 10.5626 7.35308 10.832 7.02072 10.832C6.68837 10.832 6.41895 10.5626 6.41895 10.2302V0.601779C6.41895 0.269425 6.68837 0 7.02072 0Z" fill="#4F647D"/>
</svg>
