<svg width="17" height="14" viewBox="0 0 17 14" fill="none" xmlns="http://www.w3.org/2000/svg">
<path fill-rule="evenodd" clip-rule="evenodd" d="M8.57227 5.99968C7.57815 5.99968 6.77227 6.80557 6.77227 7.79968C6.77227 8.7938 7.57815 9.59968 8.57227 9.59968C9.56638 9.59968 10.3723 8.7938 10.3723 7.79968C10.3723 6.80557 9.56638 5.99968 8.57227 5.99968ZM5.57227 7.79968C5.57227 6.14283 6.91541 4.79968 8.57227 4.79968C10.2291 4.79968 11.5723 6.14283 11.5723 7.79968C11.5723 9.45654 10.2291 10.7997 8.57227 10.7997C6.91541 10.7997 5.57227 9.45654 5.57227 7.79968Z" fill="#4F647D"/>
<path fill-rule="evenodd" clip-rule="evenodd" d="M5.68179 2.49122L8.80784 1.15149C9.06967 1.03927 9.21651 0.758413 9.15923 0.47936C9.10195 0.200308 8.85635 0 8.57148 0H6.17148C5.80018 0 5.44409 0.1475 5.18153 0.410051C4.91898 0.672601 4.77148 1.0287 4.77148 1.4C4.77148 1.46184 4.76576 1.52308 4.7546 1.58303L2.83903 2.40399C2.30387 2.43625 1.7971 2.66312 1.41585 3.04436C1.00327 3.45694 0.771484 4.01652 0.771484 4.6V11.8C0.771484 12.3835 1.00327 12.9431 1.41585 13.3556C1.82843 13.7682 2.38801 14 2.97148 14H14.1715C14.755 14 15.3145 13.7682 15.7271 13.3556C16.1397 12.9431 16.3715 12.3835 16.3715 11.8V5.4C16.3715 5.06863 16.1029 4.8 15.7715 4.8C15.4401 4.8 15.1715 5.06863 15.1715 5.4V11.8C15.1715 12.0652 15.0661 12.3196 14.8786 12.5071C14.6911 12.6946 14.4367 12.8 14.1715 12.8H2.97148C2.70627 12.8 2.45191 12.6946 2.26438 12.5071C2.07684 12.3196 1.97148 12.0652 1.97148 11.8V4.6C1.97148 4.33478 2.07684 4.08043 2.26438 3.89289C2.45191 3.70536 2.70627 3.6 2.97148 3.6H3.77148C4.35496 3.6 4.91454 3.36821 5.32712 2.95563C5.46669 2.81606 5.58557 2.65967 5.68179 2.49122Z" fill="#4F647D"/>
<path fill-rule="evenodd" clip-rule="evenodd" d="M10.3711 2.20022C10.3711 1.86885 10.6397 1.60022 10.9711 1.60022H15.7711C16.1025 1.60022 16.3711 1.86885 16.3711 2.20022C16.3711 2.53159 16.1025 2.80022 15.7711 2.80022H10.9711C10.6397 2.80022 10.3711 2.53159 10.3711 2.20022Z" fill="#4F647D"/>
</svg>
