<svg width="25" height="25" viewBox="0 0 25 25" fill="none" xmlns="http://www.w3.org/2000/svg">
<path d="M12.5 0C5.59644 0 0 5.59644 0 12.5C0 19.4036 5.59644 25 12.5 25C19.4036 25 25 19.4036 25 12.5C24.9927 5.59953 19.4005 0.00737655 12.5 0ZM13.3929 12.5C13.3929 12.9931 12.9931 13.3929 12.5 13.3929H5.35715C4.86402 13.3929 4.46427 12.9931 4.46427 12.5C4.46427 12.0069 4.86402 11.6071 5.35715 11.6071H11.6072V5.35715C11.6072 4.86402 12.0069 4.46427 12.5001 4.46427C12.9932 4.46427 13.3929 4.86402 13.3929 5.35715V12.5Z" fill="#127BF5"/>
</svg>
