<svg width="25" height="27" viewBox="0 0 25 27" fill="none" xmlns="http://www.w3.org/2000/svg">
<path d="M18.7679 19.3463C18.433 19.5346 18.1357 19.7613 17.8773 20.0192L8.19541 14.4024C8.25123 14.1337 8.28156 13.8555 8.28156 13.5712C8.28156 13.281 8.25001 12.9967 8.19177 12.7232L18.0483 7.09805C18.7861 7.77332 19.7738 8.18591 20.8586 8.18591C23.1459 8.18591 25 6.35323 25 4.09236C25 1.83268 23.1459 0 20.8586 0C18.5713 0 16.7172 1.83268 16.7172 4.09355C16.7172 4.48096 16.773 4.85637 16.875 5.2126L7.15066 10.761C6.39591 9.97062 5.32689 9.47647 4.14017 9.47647C1.8541 9.47766 0 11.3091 0 13.57C0 15.8309 1.8541 17.6636 4.14139 17.6636C5.33296 17.6636 6.40683 17.1646 7.16279 16.3682L16.7876 21.9526C16.551 22.9265 16.6723 23.988 17.2123 24.9271C18.342 26.893 20.8695 27.5814 22.8571 26.466C24.8447 25.3505 25.5424 22.851 24.4139 20.8864C23.2854 18.9217 20.7567 18.2309 18.7679 19.3463Z" fill="#4F647D"/>
</svg>
