<svg width="202" height="173" viewBox="0 0 202 173" fill="none" xmlns="http://www.w3.org/2000/svg">
<path d="M35.2242 79.3202C54.6774 83.7156 74.0569 71.3041 78.5095 51.5981C82.9621 31.8922 70.8016 12.3542 51.3483 7.9587C31.895 3.56323 12.5155 15.9748 8.06294 35.6807C3.61038 55.3866 15.7709 74.9247 35.2242 79.3202Z" fill="url(#paint0_linear)"/>
<path d="M120.372 159.692C150.952 166.602 181.417 147.091 188.417 116.113C195.416 85.1349 176.3 54.4209 145.719 47.5112C115.138 40.6014 84.6735 60.1126 77.674 91.0905C70.6746 122.068 89.791 152.782 120.372 159.692Z" fill="url(#paint1_linear)"/>
<g clip-path="url(#clip0)">
<path d="M148.842 33.0417H76.2052C74.2979 33.0417 72.4979 33.5243 70.9304 34.3762C70.9006 34.3941 70.8708 34.406 70.841 34.4179C70.8112 34.4358 70.7814 34.4477 70.7516 34.4596C70.7218 34.4775 70.692 34.4894 70.6622 34.5013C70.6324 34.5192 70.6026 34.5311 70.5728 34.543C70.543 34.5609 70.5132 34.5728 70.4834 34.5847C70.4535 34.6026 70.4237 34.6145 70.3939 34.6264C70.3641 34.6443 70.3343 34.6562 70.3045 34.6681C70.2747 34.686 70.2449 34.6979 70.2151 34.7098C70.1853 34.7277 70.1555 34.7396 70.1257 34.7515C70.0959 34.7694 70.0661 34.7813 70.0363 34.7932C70.0065 34.8111 69.9767 34.823 69.9469 34.8349C69.9171 34.8528 69.8873 34.8647 69.8575 34.8766C69.8277 34.8945 69.7979 34.9064 69.7681 34.9183C69.7085 34.9719 69.6787 34.9838 69.6489 35.0017C69.6191 35.0196 69.5893 35.0315 69.5595 35.0434C69.5297 35.0613 69.4999 35.0732 69.4701 35.0851C69.4403 35.103 69.4105 35.1149 69.3807 35.1268C69.3509 35.1447 69.3211 35.1566 69.2913 35.1685C69.2615 35.1864 69.2317 35.1983 69.2019 35.2102C69.1721 35.2281 69.1423 35.24 69.1125 35.2519C69.0827 35.2698 69.0529 35.2817 69.0231 35.2936C68.9933 35.3115 68.9635 35.3234 68.9337 35.3353C68.9039 35.3532 68.8741 35.3651 68.8443 35.377C68.8145 35.3949 68.7847 35.4068 68.7549 35.4187C68.7251 35.4366 68.6953 35.4485 68.6655 35.4604C68.6357 35.4783 68.6059 35.4902 68.5761 35.5021C68.5463 35.52 68.5165 35.5319 68.4867 35.5438C68.4569 35.5617 68.4271 35.5736 68.3973 35.5855C68.3675 35.6034 68.3377 35.6153 68.3079 35.6272C68.2781 35.6451 68.2483 35.657 68.2185 35.6689C68.1887 35.6868 68.1589 35.6987 68.1291 35.7106C68.0993 35.7285 68.0695 35.7404 68.0397 35.7523C68.0099 35.7702 67.9801 35.7821 67.9503 35.794C67.9205 35.8119 67.8907 35.8238 67.8609 35.8357C67.831 35.8536 67.8012 35.8655 67.7714 35.8774C67.7416 35.8953 67.7118 35.9072 67.682 35.9191C67.6522 35.937 67.6224 35.9489 67.5926 35.9608C67.5628 35.9787 67.533 35.9906 67.5032 36.0025C67.4734 36.0204 67.4436 36.0323 67.4138 36.0442C67.384 36.0621 67.3542 36.074 67.3244 36.0859C67.2946 36.1038 67.2648 36.1157 67.235 36.1276C67.2052 36.1455 67.1754 36.1574 67.1456 36.1693C67.1158 36.1872 67.086 36.1991 67.0562 36.211C67.0264 36.2289 66.9966 36.2408 66.9668 36.2527C66.937 36.2706 66.9072 36.2825 66.8774 36.2944C66.8476 36.3123 66.8178 36.3242 66.788 36.3362C66.7582 36.354 66.7284 36.3659 66.6986 36.3779C66.6688 36.3957 66.639 36.4076 66.6092 36.4196C66.5794 36.4374 66.5496 36.4493 66.5198 36.4613C66.49 36.4791 66.4602 36.491 66.4304 36.503C66.4006 36.5208 66.3708 36.5327 66.341 36.5447C66.3112 36.5625 66.2814 36.5744 66.2516 36.5864C66.2218 36.6042 66.192 36.6161 66.1622 36.6281C66.1324 36.6459 66.1026 36.6578 66.0728 36.6698C66.043 36.6876 66.0132 36.6995 65.9834 36.7115C65.9536 36.7293 65.9238 36.7412 65.894 36.7532C65.8642 36.771 65.8344 36.783 65.8046 36.7949C65.7748 36.8127 65.745 36.8247 65.7152 36.8366C65.596 36.9617 65.5662 36.9736 65.5364 36.9915C65.5066 37.0093 65.4768 37.0212 65.447 37.0332C65.4172 37.051 65.3874 37.0629 65.3576 37.0749C65.3278 37.0927 65.298 37.1046 65.2682 37.1166C65.2384 37.1344 65.2085 37.1463 65.1787 37.1583C65.1489 37.1761 65.1191 37.188 65.0893 37.2C65.0595 37.2178 65.0297 37.2298 64.9999 37.2417C64.9701 37.2595 64.9403 37.2715 64.9105 37.2834C64.8807 37.3012 64.8509 37.3132 64.8211 37.3251C64.7913 37.3429 64.7615 37.3549 64.7317 37.3668C64.7019 37.3846 64.6721 37.3966 64.6423 37.4085C64.6125 37.4263 64.5827 37.4383 64.5529 37.4502C64.5231 37.468 64.4933 37.48 64.4635 37.4919C64.4337 37.5097 64.4039 37.5217 64.3741 37.5336C64.3443 37.5514 64.3145 37.5634 64.2847 37.5753C64.2549 37.5931 64.2251 37.6051 64.1953 37.617C64.1655 37.6348 64.1357 37.6468 64.1059 37.6587C64.0761 37.6766 64.0463 37.6885 64.0165 37.7004C63.9867 37.7183 63.9569 37.7302 63.9271 37.7421C63.8973 37.76 63.8675 37.7719 63.8377 37.7838C63.8079 37.8017 63.7781 37.8136 63.7483 37.8255C63.7185 37.8434 63.6887 37.8553 63.6589 37.8672C63.6291 37.8851 63.5993 37.897 63.5695 37.9089C63.5397 37.9268 63.5099 37.9387 63.4801 37.9506C63.4503 37.9685 63.4205 37.9804 63.3907 37.9923C63.3609 38.0102 63.3311 38.0221 63.3013 38.034C63.2715 38.0519 63.2417 38.0638 63.2119 38.0757C63.1821 38.0936 63.1523 38.1055 63.1225 38.1174C63.0927 38.1353 63.0629 38.1472 63.0331 38.1591C63.0033 38.177 62.9735 38.1889 62.9437 38.2008C62.9139 38.2187 62.8841 38.2306 62.8543 38.2425C62.8245 38.2604 62.7947 38.2723 62.7649 38.2842C62.7351 38.3021 62.7053 38.314 62.6755 38.3259C62.6457 38.3438 62.6159 38.3557 62.5861 38.3676C62.5562 38.3855 62.5264 38.3974 62.4966 38.4093C62.4668 38.4272 62.437 38.4391 62.4072 38.451C62.3774 38.4689 62.3476 38.4808 62.3178 38.4927C62.288 38.5106 62.2582 38.5225 62.2284 38.5344C62.1986 38.5523 62.1688 38.5642 62.139 38.5761C62.1092 38.594 62.0794 38.6059 62.0496 38.6178C62.0198 38.6357 61.99 38.6476 61.9602 38.6595C58.3841 40.6195 56 44.2951 56 48.5248V90.7504C56 96.8567 60.9529 101.807 67.0622 101.807H117.426L132.088 117.88C133.268 119.173 134.997 119.274 136.284 118.559C136.314 118.541 136.344 118.529 136.374 118.518C136.403 118.5 136.433 118.488 136.463 118.476C136.493 118.458 136.523 118.446 136.552 118.434C136.582 118.416 136.612 118.404 136.642 118.392C136.672 118.375 136.701 118.363 136.731 118.351C136.761 118.333 136.791 118.321 136.821 118.309C136.85 118.291 136.88 118.279 136.91 118.267C136.94 118.249 136.97 118.238 136.999 118.226C137.029 118.208 137.059 118.196 137.089 118.184C137.119 118.166 137.148 118.154 137.178 118.142C137.208 118.124 137.238 118.112 137.268 118.1C137.297 118.083 137.327 118.071 137.357 118.059C137.387 118.041 137.417 118.029 137.446 118.017C137.476 117.999 137.506 117.987 137.536 117.975C137.566 117.958 137.596 117.946 137.625 117.934C137.655 117.916 137.685 117.904 137.715 117.892C137.745 117.874 137.774 117.862 137.804 117.85C137.834 117.832 137.864 117.82 137.894 117.809C137.923 117.791 137.953 117.779 137.983 117.767C138.013 117.749 138.043 117.737 138.072 117.725C138.102 117.707 138.132 117.695 138.162 117.683C138.192 117.666 138.221 117.654 138.251 117.642C138.281 117.624 138.311 117.612 138.341 117.6C138.37 117.582 138.4 117.57 138.43 117.558C138.46 117.541 138.49 117.529 138.519 117.517C138.549 117.499 138.579 117.487 138.609 117.475C138.639 117.457 138.668 117.445 138.698 117.433C138.728 117.415 138.758 117.403 138.788 117.392C138.817 117.374 138.847 117.362 138.877 117.35C138.907 117.332 138.937 117.32 138.966 117.308C138.996 117.29 139.026 117.278 139.056 117.266C139.086 117.249 139.115 117.237 139.145 117.225C139.175 117.207 139.205 117.195 139.235 117.183C139.264 117.165 139.294 117.153 139.324 117.141C139.354 117.123 139.384 117.112 139.413 117.1C139.443 117.082 139.473 117.07 139.503 117.058C139.533 117.04 139.562 117.028 139.592 117.016C139.622 116.998 139.652 116.986 139.682 116.975C139.711 116.957 139.741 116.945 139.771 116.933C139.801 116.915 139.831 116.903 139.86 116.891C139.89 116.873 139.92 116.861 139.95 116.849C139.98 116.832 140.009 116.82 140.039 116.808C140.069 116.79 140.099 116.778 140.129 116.766C140.158 116.748 140.188 116.736 140.218 116.724C140.248 116.706 140.278 116.695 140.307 116.683C140.337 116.665 140.367 116.653 140.397 116.641C140.427 116.623 140.456 116.611 140.486 116.599C140.516 116.581 140.546 116.569 140.576 116.558C140.605 116.54 140.635 116.528 140.665 116.516C140.695 116.498 140.725 116.486 140.754 116.474C140.784 116.456 140.814 116.444 140.844 116.432C140.874 116.415 140.903 116.403 140.933 116.391C140.963 116.373 140.993 116.361 141.023 116.349C141.052 116.331 141.082 116.319 141.112 116.307C141.142 116.289 141.172 116.278 141.201 116.266C141.231 116.248 141.261 116.236 141.291 116.224C141.321 116.206 141.35 116.194 141.38 116.182C141.41 116.164 141.44 116.152 141.47 116.141C141.499 116.123 141.529 116.111 141.559 116.099C141.589 116.081 141.619 116.069 141.648 116.057C141.678 116.039 141.708 116.027 141.738 116.015C141.768 115.998 141.797 115.986 141.827 115.974C141.857 115.956 141.887 115.944 141.917 115.932C141.946 115.914 141.976 115.902 142.006 115.89C142.036 115.872 142.066 115.861 142.095 115.849C142.125 115.831 142.155 115.819 142.185 115.807C142.215 115.789 142.244 115.777 142.274 115.765C142.304 115.747 142.334 115.735 142.364 115.724C142.393 115.706 142.423 115.694 142.453 115.682C142.483 115.664 142.513 115.652 142.542 115.64C142.572 115.622 142.602 115.61 142.632 115.598C142.662 115.581 142.691 115.569 142.721 115.557C142.751 115.539 142.781 115.527 142.811 115.515C142.84 115.497 142.87 115.485 142.9 115.473C142.93 115.455 142.96 115.444 142.99 115.432C143.019 115.414 143.049 115.402 143.079 115.39C143.109 115.372 143.139 115.36 143.168 115.348C143.198 115.33 143.228 115.318 143.258 115.307C143.288 115.289 143.317 115.277 143.347 115.265C143.377 115.247 143.407 115.235 143.437 115.223C143.466 115.205 143.496 115.193 143.526 115.181C143.556 115.164 143.586 115.152 143.615 115.14C143.645 115.122 143.675 115.11 143.705 115.098C143.735 115.08 143.764 115.068 143.794 115.056C143.824 115.038 143.854 115.027 143.884 115.015C143.913 114.997 143.943 114.985 143.973 114.973C144.003 114.955 144.033 114.943 144.062 114.931C144.092 114.913 144.122 114.901 144.152 114.889C144.182 114.872 144.211 114.86 144.241 114.848C144.271 114.83 144.301 114.818 144.331 114.806C144.36 114.788 144.39 114.776 144.42 114.764C144.45 114.747 144.48 114.735 144.509 114.723C144.539 114.705 144.569 114.693 144.599 114.681C144.629 114.663 144.658 114.651 144.688 114.639C144.718 114.621 144.748 114.609 144.778 114.598C144.807 114.58 144.837 114.568 144.867 114.556C144.897 114.538 144.927 114.526 144.956 114.514C144.986 114.496 145.016 114.484 145.046 114.472C145.076 114.455 145.105 114.443 145.135 114.431C146.178 113.895 146.959 112.84 146.977 111.446L147.132 99.5851C147.144 99.5792 147.15 99.5732 147.162 99.5732C147.191 99.5553 147.221 99.5434 147.251 99.5315C147.281 99.5136 147.311 99.5017 147.34 99.4898C147.37 99.4719 147.4 99.46 147.43 99.4481C147.46 99.4302 147.489 99.4183 147.519 99.4064C147.549 99.3885 147.579 99.3766 147.609 99.3647C147.638 99.3468 147.668 99.3349 147.698 99.323C147.728 99.3051 147.758 99.2932 147.787 99.2813C147.817 99.2634 147.847 99.2515 147.877 99.2396C147.907 99.2217 147.937 99.2098 147.966 99.1979C147.996 99.18 148.026 99.1681 148.056 99.1562C148.086 99.1383 148.115 99.1264 148.145 99.1145C148.175 99.0966 148.205 99.0847 148.235 99.0728C148.264 99.0549 148.294 99.043 148.324 99.0311C148.354 99.0132 148.384 99.0013 148.413 98.9894C148.443 98.9715 148.473 98.9596 148.503 98.9477C148.533 98.9298 148.562 98.9179 148.592 98.906C148.622 98.8881 148.652 98.8762 148.682 98.8643C148.711 98.8464 148.741 98.8345 148.771 98.8226C148.801 98.8047 148.831 98.7928 148.86 98.7809C148.89 98.763 148.92 98.7511 148.95 98.7392C148.98 98.7213 149.009 98.7094 149.039 98.6975C149.069 98.6796 149.099 98.6677 149.129 98.6558C149.158 98.6379 149.188 98.626 149.218 98.6141C149.248 98.5962 149.278 98.5843 149.307 98.5724C149.337 98.5545 149.367 98.5426 149.397 98.5307C149.427 98.5128 149.456 98.5009 149.486 98.489C149.516 98.4711 149.546 98.4592 149.576 98.4473C149.605 98.4294 149.635 98.4175 149.665 98.4056C149.695 98.3877 149.725 98.3758 149.754 98.3639C149.784 98.346 149.814 98.3341 149.844 98.3222C149.874 98.3043 149.903 98.2924 149.933 98.2805C149.963 98.2626 149.993 98.2507 150.023 98.2388C150.052 98.2209 150.082 98.209 150.112 98.1971C150.142 98.1792 150.172 98.1673 150.201 98.1554C150.231 98.1375 150.261 98.1256 150.291 98.1137C150.321 98.0958 150.35 98.0839 150.38 98.072C150.41 98.0541 150.44 98.0422 150.47 98.0303C150.499 98.0124 150.529 98.0005 150.559 97.9885C150.589 97.9707 150.619 97.9588 150.648 97.9468C150.678 97.929 150.708 97.9171 150.738 97.9051C150.768 97.8873 150.797 97.8754 150.827 97.8634C150.857 97.8456 150.887 97.8337 150.917 97.8217C150.946 97.8039 150.976 97.792 151.006 97.78C151.036 97.7622 151.066 97.7503 151.095 97.7383C151.125 97.7205 151.155 97.7086 151.185 97.6966C151.215 97.6788 151.244 97.6669 151.274 97.6549C151.304 97.6371 151.334 97.6252 151.364 97.6132C151.393 97.5954 151.423 97.5835 151.453 97.5715C151.483 97.5537 151.513 97.5418 151.542 97.5298C151.572 97.512 151.602 97.5001 151.632 97.4881C151.662 97.4703 151.691 97.4584 151.721 97.4464C151.751 97.4286 151.781 97.4166 151.811 97.4047C151.84 97.3869 151.87 97.3749 151.9 97.363C151.93 97.3452 151.96 97.3332 151.989 97.3213C152.019 97.3035 152.049 97.2915 152.079 97.2796C152.109 97.2618 152.138 97.2498 152.168 97.2379C152.198 97.2201 152.228 97.2081 152.258 97.1962C152.287 97.1784 152.317 97.1664 152.347 97.1545C152.377 97.1367 152.407 97.1247 152.436 97.1128C152.466 97.095 152.496 97.083 152.526 97.0711C152.556 97.0533 152.585 97.0413 152.615 97.0294C152.645 97.0116 152.675 96.9996 152.705 96.9877C152.734 96.9699 152.764 96.9579 152.794 96.946C152.824 96.9281 152.854 96.9162 152.883 96.9043C152.913 96.8864 152.943 96.8745 152.973 96.8626C153.003 96.8447 153.032 96.8328 153.062 96.8209C153.092 96.803 153.122 96.7911 153.152 96.7792C153.181 96.7613 153.211 96.7494 153.241 96.7375C153.271 96.7196 153.301 96.7077 153.331 96.6958C153.36 96.6779 153.39 96.666 153.42 96.6541C153.45 96.6362 153.48 96.6243 153.509 96.6124C153.539 96.5945 153.569 96.5826 153.599 96.5707C153.629 96.5528 153.658 96.5409 153.688 96.529C157.187 94.6703 159.571 90.9946 159.571 86.7649V44.1045C159.905 37.9923 154.952 33.0417 148.842 33.0417Z" fill="url(#paint2_linear)"/>
<path d="M148.932 33H76.2946C70.1854 33 65.2324 37.9505 65.2324 44.0568V86.2823C65.2324 92.3886 70.1854 97.3391 76.2946 97.3391H126.659L141.321 113.412C143.413 115.706 147.227 114.252 147.269 111.154L147.448 97.3391H148.938C155.047 97.3391 160 92.3886 160 86.2823V44.0568C160 37.9505 155.047 33 148.932 33Z" fill="white"/>
<path d="M148.932 33H76.2946C70.1854 33 65.2324 37.9505 65.2324 44.0568V86.2823C65.2324 92.3886 70.1854 97.3391 76.2946 97.3391H126.659L141.321 113.412C143.413 115.706 147.227 114.252 147.269 111.154L147.448 97.3391H148.938C155.047 97.3391 160 92.3886 160 86.2823V44.0568C160 37.9505 155.047 33 148.932 33Z" fill="url(#paint3_linear)"/>
<g filter="url(#filter0_i)">
<path d="M86.5214 71.1388C89.5136 71.1388 91.9392 68.7143 91.9392 65.7236C91.9392 62.7328 89.5136 60.3083 86.5214 60.3083C83.5292 60.3083 81.1035 62.7328 81.1035 65.7236C81.1035 68.7143 83.5292 71.1388 86.5214 71.1388Z" fill="url(#paint4_linear)"/>
</g>
<g filter="url(#filter1_i)">
<path d="M111.555 71.3592C114.547 71.3592 116.972 68.9348 116.972 65.944C116.972 62.9533 114.547 60.5288 111.555 60.5288C108.562 60.5288 106.137 62.9533 106.137 65.944C106.137 68.9348 108.562 71.3592 111.555 71.3592Z" fill="url(#paint5_linear)"/>
</g>
<g filter="url(#filter2_i)">
<path d="M136.588 71.1388C139.58 71.1388 142.006 68.7143 142.006 65.7236C142.006 62.7328 139.58 60.3083 136.588 60.3083C133.596 60.3083 131.17 62.7328 131.17 65.7236C131.17 68.7143 133.596 71.1388 136.588 71.1388Z" fill="url(#paint6_linear)"/>
</g>
</g>
<g clip-path="url(#clip1)">
<path d="M75.6358 110.02H40.714C39.7971 110.02 38.9317 110.256 38.1781 110.672C38.1637 110.681 38.1494 110.687 38.1351 110.692C38.1208 110.701 38.1064 110.707 38.0921 110.713C38.0778 110.722 38.0634 110.727 38.0491 110.733C38.0348 110.742 38.0205 110.748 38.0061 110.754C37.9918 110.762 37.9775 110.768 37.9631 110.774C37.9488 110.783 37.9345 110.788 37.9202 110.794C37.9058 110.803 37.8915 110.809 37.8772 110.815C37.8629 110.823 37.8485 110.829 37.8342 110.835C37.8199 110.844 37.8055 110.85 37.7912 110.855C37.7769 110.864 37.7626 110.87 37.7482 110.876C37.7339 110.884 37.7196 110.89 37.7053 110.896C37.6909 110.905 37.6766 110.911 37.6623 110.916C37.6479 110.925 37.6336 110.931 37.6193 110.937C37.5906 110.963 37.5763 110.969 37.562 110.978C37.5477 110.986 37.5333 110.992 37.519 110.998C37.5047 111.007 37.4903 111.012 37.476 111.018C37.4617 111.027 37.4474 111.033 37.433 111.039C37.4187 111.047 37.4044 111.053 37.3901 111.059C37.3757 111.068 37.3614 111.074 37.3471 111.079C37.3327 111.088 37.3184 111.094 37.3041 111.1C37.2898 111.108 37.2754 111.114 37.2611 111.12C37.2468 111.129 37.2324 111.135 37.2181 111.141C37.2038 111.149 37.1895 111.155 37.1751 111.161C37.1608 111.17 37.1465 111.175 37.1322 111.181C37.1178 111.19 37.1035 111.196 37.0892 111.202C37.0748 111.21 37.0605 111.216 37.0462 111.222C37.0319 111.231 37.0175 111.237 37.0032 111.242C36.9889 111.251 36.9746 111.257 36.9602 111.263C36.9459 111.271 36.9316 111.277 36.9172 111.283C36.9029 111.292 36.8886 111.298 36.8743 111.303C36.8599 111.312 36.8456 111.318 36.8313 111.324C36.817 111.333 36.8026 111.338 36.7883 111.344C36.774 111.353 36.7596 111.359 36.7453 111.365C36.731 111.373 36.7167 111.379 36.7023 111.385C36.688 111.394 36.6737 111.399 36.6593 111.405C36.645 111.414 36.6307 111.42 36.6164 111.426C36.602 111.434 36.5877 111.44 36.5734 111.446C36.5591 111.455 36.5447 111.461 36.5304 111.466C36.5161 111.475 36.5017 111.481 36.4874 111.487C36.4731 111.495 36.4588 111.501 36.4444 111.507C36.4301 111.516 36.4158 111.522 36.4015 111.527C36.3871 111.536 36.3728 111.542 36.3585 111.548C36.3441 111.557 36.3298 111.562 36.3155 111.568C36.3012 111.577 36.2868 111.583 36.2725 111.589C36.2582 111.597 36.2439 111.603 36.2295 111.609C36.2152 111.618 36.2009 111.623 36.1865 111.629C36.1722 111.638 36.1579 111.644 36.1436 111.65C36.1292 111.658 36.1149 111.664 36.1006 111.67C36.0863 111.679 36.0719 111.685 36.0576 111.69C36.0433 111.699 36.0289 111.705 36.0146 111.711C36.0003 111.719 35.986 111.725 35.9716 111.731C35.9573 111.74 35.943 111.746 35.9286 111.751C35.9143 111.76 35.9 111.766 35.8857 111.772C35.8713 111.781 35.857 111.786 35.8427 111.792C35.8284 111.801 35.814 111.807 35.7997 111.813C35.7854 111.821 35.771 111.827 35.7567 111.833C35.7424 111.842 35.7281 111.847 35.7137 111.853C35.6994 111.862 35.6851 111.868 35.6708 111.874C35.6134 111.935 35.5991 111.941 35.5848 111.949C35.5705 111.958 35.5561 111.964 35.5418 111.97C35.5275 111.978 35.5132 111.984 35.4988 111.99C35.4845 111.999 35.4702 112.005 35.4558 112.01C35.4415 112.019 35.4272 112.025 35.4129 112.031C35.3985 112.04 35.3842 112.045 35.3699 112.051C35.3556 112.06 35.3412 112.066 35.3269 112.072C35.3126 112.08 35.2982 112.086 35.2839 112.092C35.2696 112.101 35.2553 112.106 35.2409 112.112C35.2266 112.121 35.2123 112.127 35.1979 112.133C35.1836 112.141 35.1693 112.147 35.155 112.153C35.1406 112.162 35.1263 112.168 35.112 112.173C35.0977 112.182 35.0833 112.188 35.069 112.194C35.0547 112.202 35.0403 112.208 35.026 112.214C35.0117 112.223 34.9974 112.229 34.983 112.234C34.9687 112.243 34.9544 112.249 34.9401 112.255C34.9257 112.264 34.9114 112.269 34.8971 112.275C34.8827 112.284 34.8684 112.29 34.8541 112.296C34.8398 112.304 34.8254 112.31 34.8111 112.316C34.7968 112.325 34.7825 112.33 34.7681 112.336C34.7538 112.345 34.7395 112.351 34.7251 112.357C34.7108 112.365 34.6965 112.371 34.6822 112.377C34.6678 112.386 34.6535 112.392 34.6392 112.397C34.6248 112.406 34.6105 112.412 34.5962 112.418C34.5819 112.426 34.5675 112.432 34.5532 112.438C34.5389 112.447 34.5246 112.453 34.5102 112.458C34.4959 112.467 34.4816 112.473 34.4672 112.479C34.4529 112.488 34.4386 112.493 34.4243 112.499C34.4099 112.508 34.3956 112.514 34.3813 112.52C34.367 112.528 34.3526 112.534 34.3383 112.54C34.324 112.549 34.3096 112.554 34.2953 112.56C34.281 112.569 34.2667 112.575 34.2523 112.581C34.238 112.589 34.2237 112.595 34.2094 112.601C34.195 112.61 34.1807 112.616 34.1664 112.621C34.152 112.63 34.1377 112.636 34.1234 112.642C34.1091 112.65 34.0947 112.656 34.0804 112.662C34.0661 112.671 34.0518 112.677 34.0374 112.682C34.0231 112.691 34.0088 112.697 33.9944 112.703C33.9801 112.712 33.9658 112.717 33.9515 112.723C33.9371 112.732 33.9228 112.738 33.9085 112.744C33.8941 112.752 33.8798 112.758 33.8655 112.764C32.1462 113.721 31 115.516 31 117.582V138.204C31 141.186 33.3812 143.604 36.3184 143.604H60.5318L67.5809 151.453C68.1483 152.084 68.9793 152.134 69.5982 151.785C69.6125 151.776 69.6269 151.77 69.6412 151.764C69.6555 151.756 69.6698 151.75 69.6842 151.744C69.6985 151.735 69.7128 151.729 69.7271 151.724C69.7415 151.715 69.7558 151.709 69.7701 151.703C69.7845 151.695 69.7988 151.689 69.8131 151.683C69.8274 151.674 69.8418 151.668 69.8561 151.663C69.8704 151.654 69.8847 151.648 69.8991 151.642C69.9134 151.633 69.9277 151.628 69.9421 151.622C69.9564 151.613 69.9707 151.607 69.985 151.601C69.9994 151.593 70.0137 151.587 70.028 151.581C70.0424 151.572 70.0567 151.567 70.071 151.561C70.0853 151.552 70.0997 151.546 70.114 151.54C70.1283 151.532 70.1426 151.526 70.157 151.52C70.1713 151.511 70.1856 151.505 70.2 151.5C70.2143 151.491 70.2286 151.485 70.2429 151.479C70.2573 151.471 70.2716 151.465 70.2859 151.459C70.3002 151.45 70.3146 151.444 70.3289 151.438C70.3432 151.43 70.3576 151.424 70.3719 151.418C70.3862 151.409 70.4005 151.404 70.4149 151.398C70.4292 151.389 70.4435 151.383 70.4578 151.377C70.4722 151.369 70.4865 151.363 70.5008 151.357C70.5152 151.348 70.5295 151.342 70.5438 151.337C70.5581 151.328 70.5725 151.322 70.5868 151.316C70.6011 151.308 70.6154 151.302 70.6298 151.296C70.6441 151.287 70.6584 151.281 70.6728 151.276C70.6871 151.267 70.7014 151.261 70.7157 151.255C70.7301 151.246 70.7444 151.241 70.7587 151.235C70.7731 151.226 70.7874 151.22 70.8017 151.214C70.816 151.206 70.8304 151.2 70.8447 151.194C70.859 151.185 70.8733 151.18 70.8877 151.174C70.902 151.165 70.9163 151.159 70.9307 151.153C70.945 151.145 70.9593 151.139 70.9736 151.133C70.988 151.124 71.0023 151.118 71.0166 151.113C71.0309 151.104 71.0453 151.098 71.0596 151.092C71.0739 151.084 71.0883 151.078 71.1026 151.072C71.1169 151.063 71.1312 151.057 71.1456 151.052C71.1599 151.043 71.1742 151.037 71.1885 151.031C71.2029 151.022 71.2172 151.017 71.2315 151.011C71.2459 151.002 71.2602 150.996 71.2745 150.99C71.2888 150.982 71.3032 150.976 71.3175 150.97C71.3318 150.961 71.3462 150.956 71.3605 150.95C71.3748 150.941 71.3891 150.935 71.4035 150.929C71.4178 150.921 71.4321 150.915 71.4464 150.909C71.4608 150.9 71.4751 150.894 71.4894 150.889C71.5038 150.88 71.5181 150.874 71.5324 150.868C71.5467 150.86 71.5611 150.854 71.5754 150.848C71.5897 150.839 71.604 150.833 71.6184 150.828C71.6327 150.819 71.647 150.813 71.6614 150.807C71.6757 150.798 71.69 150.793 71.7043 150.787C71.7187 150.778 71.733 150.772 71.7473 150.766C71.7616 150.758 71.776 150.752 71.7903 150.746C71.8046 150.737 71.819 150.732 71.8333 150.726C71.8476 150.717 71.8619 150.711 71.8763 150.705C71.8906 150.697 71.9049 150.691 71.9193 150.685C71.9336 150.676 71.9479 150.67 71.9622 150.665C71.9766 150.656 71.9909 150.65 72.0052 150.644C72.0195 150.636 72.0339 150.63 72.0482 150.624C72.0625 150.615 72.0768 150.609 72.0912 150.604C72.1055 150.595 72.1198 150.589 72.1342 150.583C72.1485 150.574 72.1628 150.569 72.1771 150.563C72.1915 150.554 72.2058 150.548 72.2201 150.542C72.2345 150.534 72.2488 150.528 72.2631 150.522C72.2774 150.513 72.2918 150.507 72.3061 150.502C72.3204 150.493 72.3347 150.487 72.3491 150.481C72.3634 150.473 72.3777 150.467 72.3921 150.461C72.4064 150.452 72.4207 150.446 72.435 150.441C72.4494 150.432 72.4637 150.426 72.478 150.42C72.4923 150.411 72.5067 150.406 72.521 150.4C72.5353 150.391 72.5497 150.385 72.564 150.379C72.5783 150.371 72.5926 150.365 72.607 150.359C72.6213 150.35 72.6356 150.345 72.65 150.339C72.6643 150.33 72.6786 150.324 72.6929 150.318C72.7073 150.31 72.7216 150.304 72.7359 150.298C72.7502 150.289 72.7646 150.283 72.7789 150.278C72.7932 150.269 72.8076 150.263 72.8219 150.257C72.8362 150.249 72.8505 150.243 72.8649 150.237C72.8792 150.228 72.8935 150.222 72.9078 150.217C72.9222 150.208 72.9365 150.202 72.9508 150.196C72.9652 150.187 72.9795 150.182 72.9938 150.176C73.0081 150.167 73.0225 150.161 73.0368 150.155C73.0511 150.147 73.0654 150.141 73.0798 150.135C73.0941 150.126 73.1084 150.121 73.1228 150.115C73.1371 150.106 73.1514 150.1 73.1657 150.094C73.1801 150.086 73.1944 150.08 73.2087 150.074C73.223 150.065 73.2374 150.059 73.2517 150.054C73.266 150.045 73.2804 150.039 73.2947 150.033C73.309 150.025 73.3233 150.019 73.3377 150.013C73.352 150.004 73.3663 149.998 73.3806 149.993C73.395 149.984 73.4093 149.978 73.4236 149.972C73.438 149.963 73.4523 149.958 73.4666 149.952C73.4809 149.943 73.4953 149.937 73.5096 149.931C73.5239 149.923 73.5383 149.917 73.5526 149.911C73.5669 149.902 73.5812 149.897 73.5956 149.891C73.6099 149.882 73.6242 149.876 73.6385 149.87C73.6529 149.862 73.6672 149.856 73.6815 149.85C73.6959 149.841 73.7102 149.835 73.7245 149.83C73.7388 149.821 73.7532 149.815 73.7675 149.809C73.7818 149.801 73.7961 149.795 73.8105 149.789C73.8248 149.78 73.8391 149.774 73.8535 149.769C74.3549 149.507 74.7303 148.992 74.7389 148.311L74.8134 142.518C74.8191 142.515 74.822 142.512 74.8277 142.512C74.8421 142.504 74.8564 142.498 74.8707 142.492C74.885 142.483 74.8994 142.478 74.9137 142.472C74.928 142.463 74.9423 142.457 74.9567 142.451C74.971 142.443 74.9853 142.437 74.9997 142.431C75.014 142.422 75.0283 142.416 75.0426 142.411C75.057 142.402 75.0713 142.396 75.0856 142.39C75.0999 142.382 75.1143 142.376 75.1286 142.37C75.1429 142.361 75.1573 142.355 75.1716 142.35C75.1859 142.341 75.2002 142.335 75.2146 142.329C75.2289 142.32 75.2432 142.315 75.2575 142.309C75.2719 142.3 75.2862 142.294 75.3005 142.288C75.3149 142.28 75.3292 142.274 75.3435 142.268C75.3578 142.259 75.3722 142.254 75.3865 142.248C75.4008 142.239 75.4152 142.233 75.4295 142.227C75.4438 142.219 75.4581 142.213 75.4725 142.207C75.4868 142.198 75.5011 142.192 75.5154 142.187C75.5298 142.178 75.5441 142.172 75.5584 142.166C75.5728 142.158 75.5871 142.152 75.6014 142.146C75.6157 142.137 75.6301 142.131 75.6444 142.126C75.6587 142.117 75.673 142.111 75.6874 142.105C75.7017 142.096 75.716 142.091 75.7304 142.085C75.7447 142.076 75.759 142.07 75.7733 142.064C75.7877 142.056 75.802 142.05 75.8163 142.044C75.8306 142.035 75.845 142.03 75.8593 142.024C75.8736 142.015 75.888 142.009 75.9023 142.003C75.9166 141.995 75.9309 141.989 75.9453 141.983C75.9596 141.974 75.9739 141.968 75.9883 141.963C76.0026 141.954 76.0169 141.948 76.0312 141.942C76.0456 141.934 76.0599 141.928 76.0742 141.922C76.0885 141.913 76.1029 141.907 76.1172 141.902C76.1315 141.893 76.1459 141.887 76.1602 141.881C76.1745 141.872 76.1888 141.867 76.2032 141.861C76.2175 141.852 76.2318 141.846 76.2461 141.84C76.2605 141.832 76.2748 141.826 76.2891 141.82C76.3035 141.811 76.3178 141.806 76.3321 141.8C76.3464 141.791 76.3608 141.785 76.3751 141.779C76.3894 141.771 76.4037 141.765 76.4181 141.759C76.4324 141.75 76.4467 141.744 76.4611 141.739C76.4754 141.73 76.4897 141.724 76.504 141.718C76.5184 141.709 76.5327 141.704 76.547 141.698C76.5613 141.689 76.5757 141.683 76.59 141.677C76.6043 141.669 76.6187 141.663 76.633 141.657C76.6473 141.648 76.6616 141.643 76.676 141.637C76.6903 141.628 76.7046 141.622 76.719 141.616C76.7333 141.608 76.7476 141.602 76.7619 141.596C76.7763 141.587 76.7906 141.581 76.8049 141.576C76.8192 141.567 76.8336 141.561 76.8479 141.555C76.8622 141.547 76.8766 141.541 76.8909 141.535C76.9052 141.526 76.9195 141.52 76.9339 141.515C76.9482 141.506 76.9625 141.5 76.9768 141.494C76.9912 141.485 77.0055 141.48 77.0198 141.474C77.0342 141.465 77.0485 141.459 77.0628 141.453C77.0771 141.445 77.0915 141.439 77.1058 141.433C77.1201 141.424 77.1344 141.419 77.1488 141.413C77.1631 141.404 77.1774 141.398 77.1918 141.392C77.2061 141.384 77.2204 141.378 77.2347 141.372C77.2491 141.363 77.2634 141.357 77.2777 141.352C77.292 141.343 77.3064 141.337 77.3207 141.331C77.335 141.323 77.3494 141.317 77.3637 141.311C77.378 141.302 77.3923 141.296 77.4067 141.291C77.421 141.282 77.4353 141.276 77.4497 141.27C77.464 141.261 77.4783 141.256 77.4926 141.25C77.507 141.241 77.5213 141.235 77.5356 141.229C77.5499 141.221 77.5643 141.215 77.5786 141.209C77.5929 141.2 77.6073 141.195 77.6216 141.189C77.6359 141.18 77.6502 141.174 77.6646 141.168C77.6789 141.16 77.6932 141.154 77.7075 141.148C77.7219 141.139 77.7362 141.133 77.7505 141.128C77.7649 141.119 77.7792 141.113 77.7935 141.107C77.8078 141.099 77.8222 141.093 77.8365 141.087C77.8508 141.078 77.8652 141.072 77.8795 141.067C77.8938 141.058 77.9081 141.052 77.9225 141.046C77.9368 141.037 77.9511 141.032 77.9654 141.026C79.6475 140.118 80.7937 138.323 80.7937 136.257V115.423C80.9542 112.438 78.5729 110.02 75.6358 110.02Z" fill="url(#paint7_linear)"/>
<path d="M75.6796 110H40.7578C37.8207 110 35.4395 112.418 35.4395 115.4V136.022C35.4395 139.004 37.8207 141.421 40.7578 141.421H64.9712L72.0203 149.271C73.0261 150.391 74.86 149.681 74.8801 148.168L74.9661 141.421H75.6824C78.6196 141.421 81.0008 139.004 81.0008 136.022V115.4C81.0008 112.418 78.6196 110 75.6796 110Z" fill="white"/>
<path d="M75.6796 110H40.7578C37.8207 110 35.4395 112.418 35.4395 115.4V136.022C35.4395 139.004 37.8207 141.421 40.7578 141.421H64.9712L72.0203 149.271C73.0261 150.391 74.86 149.681 74.8801 148.168L74.9661 141.421H75.6824C78.6196 141.421 81.0008 139.004 81.0008 136.022V115.4C81.0008 112.418 78.6196 110 75.6796 110Z" fill="url(#paint8_linear)"/>
<g filter="url(#filter3_i)">
<path d="M45.675 128.626C47.1136 128.626 48.2798 127.442 48.2798 125.981C48.2798 124.521 47.1136 123.337 45.675 123.337C44.2365 123.337 43.0703 124.521 43.0703 125.981C43.0703 127.442 44.2365 128.626 45.675 128.626Z" fill="url(#paint9_linear)"/>
</g>
<g filter="url(#filter4_i)">
<path d="M57.7102 128.734C59.1488 128.734 60.3149 127.55 60.3149 126.089C60.3149 124.628 59.1488 123.444 57.7102 123.444C56.2716 123.444 55.1055 124.628 55.1055 126.089C55.1055 127.55 56.2716 128.734 57.7102 128.734Z" fill="url(#paint10_linear)"/>
</g>
<g filter="url(#filter5_i)">
<path d="M69.7434 128.626C71.182 128.626 72.3481 127.442 72.3481 125.981C72.3481 124.521 71.182 123.337 69.7434 123.337C68.3049 123.337 67.1387 124.521 67.1387 125.981C67.1387 127.442 68.3049 128.626 69.7434 128.626Z" fill="url(#paint11_linear)"/>
</g>
</g>
<defs>
<filter id="filter0_i" x="81.1035" y="60.3083" width="12.8357" height="12.8304" filterUnits="userSpaceOnUse" color-interpolation-filters="sRGB">
<feFlood flood-opacity="0" result="BackgroundImageFix"/>
<feBlend mode="normal" in="SourceGraphic" in2="BackgroundImageFix" result="shape"/>
<feColorMatrix in="SourceAlpha" type="matrix" values="0 0 0 0 0 0 0 0 0 0 0 0 0 0 0 0 0 0 127 0" result="hardAlpha"/>
<feOffset dx="2" dy="2"/>
<feGaussianBlur stdDeviation="1.5"/>
<feComposite in2="hardAlpha" operator="arithmetic" k2="-1" k3="1"/>
<feColorMatrix type="matrix" values="0 0 0 0 0.0239063 0 0 0 0 0.306159 0 0 0 0 0.6375 0 0 0 0.3 0"/>
<feBlend mode="normal" in2="shape" result="effect1_innerShadow"/>
</filter>
<filter id="filter1_i" x="106.137" y="60.5288" width="12.8357" height="12.8304" filterUnits="userSpaceOnUse" color-interpolation-filters="sRGB">
<feFlood flood-opacity="0" result="BackgroundImageFix"/>
<feBlend mode="normal" in="SourceGraphic" in2="BackgroundImageFix" result="shape"/>
<feColorMatrix in="SourceAlpha" type="matrix" values="0 0 0 0 0 0 0 0 0 0 0 0 0 0 0 0 0 0 127 0" result="hardAlpha"/>
<feOffset dx="2" dy="2"/>
<feGaussianBlur stdDeviation="1.5"/>
<feComposite in2="hardAlpha" operator="arithmetic" k2="-1" k3="1"/>
<feColorMatrix type="matrix" values="0 0 0 0 0.0239063 0 0 0 0 0.306159 0 0 0 0 0.6375 0 0 0 0.3 0"/>
<feBlend mode="normal" in2="shape" result="effect1_innerShadow"/>
</filter>
<filter id="filter2_i" x="131.17" y="60.3083" width="12.8357" height="12.8304" filterUnits="userSpaceOnUse" color-interpolation-filters="sRGB">
<feFlood flood-opacity="0" result="BackgroundImageFix"/>
<feBlend mode="normal" in="SourceGraphic" in2="BackgroundImageFix" result="shape"/>
<feColorMatrix in="SourceAlpha" type="matrix" values="0 0 0 0 0 0 0 0 0 0 0 0 0 0 0 0 0 0 127 0" result="hardAlpha"/>
<feOffset dx="2" dy="2"/>
<feGaussianBlur stdDeviation="1.5"/>
<feComposite in2="hardAlpha" operator="arithmetic" k2="-1" k3="1"/>
<feColorMatrix type="matrix" values="0 0 0 0 0.0239063 0 0 0 0 0.306159 0 0 0 0 0.6375 0 0 0 0.3 0"/>
<feBlend mode="normal" in2="shape" result="effect1_innerShadow"/>
</filter>
<filter id="filter3_i" x="43.0703" y="123.337" width="7.20947" height="7.28928" filterUnits="userSpaceOnUse" color-interpolation-filters="sRGB">
<feFlood flood-opacity="0" result="BackgroundImageFix"/>
<feBlend mode="normal" in="SourceGraphic" in2="BackgroundImageFix" result="shape"/>
<feColorMatrix in="SourceAlpha" type="matrix" values="0 0 0 0 0 0 0 0 0 0 0 0 0 0 0 0 0 0 127 0" result="hardAlpha"/>
<feOffset dx="2" dy="2"/>
<feGaussianBlur stdDeviation="1.5"/>
<feComposite in2="hardAlpha" operator="arithmetic" k2="-1" k3="1"/>
<feColorMatrix type="matrix" values="0 0 0 0 0.0239063 0 0 0 0 0.306159 0 0 0 0 0.6375 0 0 0 0.3 0"/>
<feBlend mode="normal" in2="shape" result="effect1_innerShadow"/>
</filter>
<filter id="filter4_i" x="55.1055" y="123.444" width="7.20947" height="7.28928" filterUnits="userSpaceOnUse" color-interpolation-filters="sRGB">
<feFlood flood-opacity="0" result="BackgroundImageFix"/>
<feBlend mode="normal" in="SourceGraphic" in2="BackgroundImageFix" result="shape"/>
<feColorMatrix in="SourceAlpha" type="matrix" values="0 0 0 0 0 0 0 0 0 0 0 0 0 0 0 0 0 0 127 0" result="hardAlpha"/>
<feOffset dx="2" dy="2"/>
<feGaussianBlur stdDeviation="1.5"/>
<feComposite in2="hardAlpha" operator="arithmetic" k2="-1" k3="1"/>
<feColorMatrix type="matrix" values="0 0 0 0 0.0239063 0 0 0 0 0.306159 0 0 0 0 0.6375 0 0 0 0.3 0"/>
<feBlend mode="normal" in2="shape" result="effect1_innerShadow"/>
</filter>
<filter id="filter5_i" x="67.1387" y="123.337" width="7.20947" height="7.28928" filterUnits="userSpaceOnUse" color-interpolation-filters="sRGB">
<feFlood flood-opacity="0" result="BackgroundImageFix"/>
<feBlend mode="normal" in="SourceGraphic" in2="BackgroundImageFix" result="shape"/>
<feColorMatrix in="SourceAlpha" type="matrix" values="0 0 0 0 0 0 0 0 0 0 0 0 0 0 0 0 0 0 127 0" result="hardAlpha"/>
<feOffset dx="2" dy="2"/>
<feGaussianBlur stdDeviation="1.5"/>
<feComposite in2="hardAlpha" operator="arithmetic" k2="-1" k3="1"/>
<feColorMatrix type="matrix" values="0 0 0 0 0.0239063 0 0 0 0 0.306159 0 0 0 0 0.6375 0 0 0 0.3 0"/>
<feBlend mode="normal" in2="shape" result="effect1_innerShadow"/>
</filter>
<linearGradient id="paint0_linear" x1="41.672" y1="24.5563" x2="35.5633" y2="84.913" gradientUnits="userSpaceOnUse">
<stop stop-color="#FFE040"/>
<stop offset="1" stop-color="#FFA030"/>
</linearGradient>
<linearGradient id="paint1_linear" x1="130.508" y1="73.6027" x2="120.905" y2="168.484" gradientUnits="userSpaceOnUse">
<stop stop-color="#FFE040"/>
<stop offset="1" stop-color="#FFA030"/>
</linearGradient>
<linearGradient id="paint2_linear" x1="76.5" y1="65.0001" x2="80.7014" y2="96.4732" gradientUnits="userSpaceOnUse">
<stop stop-color="#B3D7FF"/>
<stop offset="1" stop-color="#4F92DF"/>
</linearGradient>
<linearGradient id="paint3_linear" x1="108.5" y1="98" x2="110.5" y2="66.5" gradientUnits="userSpaceOnUse">
<stop offset="0.118911" stop-color="#D9EAFF"/>
<stop offset="1" stop-color="white" stop-opacity="0"/>
</linearGradient>
<linearGradient id="paint4_linear" x1="86.6622" y1="63.1026" x2="86.5198" y2="71.1387" gradientUnits="userSpaceOnUse">
<stop stop-color="#7EBAFF"/>
<stop offset="1" stop-color="#6DB1FF"/>
</linearGradient>
<linearGradient id="paint5_linear" x1="111.695" y1="63.323" x2="111.553" y2="71.3592" gradientUnits="userSpaceOnUse">
<stop stop-color="#7EBAFF"/>
<stop offset="1" stop-color="#6DB1FF"/>
</linearGradient>
<linearGradient id="paint6_linear" x1="136.729" y1="63.1026" x2="136.586" y2="71.1387" gradientUnits="userSpaceOnUse">
<stop stop-color="#7EBAFF"/>
<stop offset="1" stop-color="#6DB1FF"/>
</linearGradient>
<linearGradient id="paint7_linear" x1="40.8558" y1="125.628" x2="42.9389" y2="140.99" gradientUnits="userSpaceOnUse">
<stop stop-color="#B3D7FF"/>
<stop offset="1" stop-color="#4F92DF"/>
</linearGradient>
<linearGradient id="paint8_linear" x1="56.2412" y1="141.744" x2="57.2333" y2="126.362" gradientUnits="userSpaceOnUse">
<stop offset="0.118911" stop-color="#D9EAFF"/>
<stop offset="1" stop-color="white" stop-opacity="0"/>
</linearGradient>
<linearGradient id="paint9_linear" x1="45.7427" y1="124.701" x2="45.6721" y2="128.626" gradientUnits="userSpaceOnUse">
<stop stop-color="#7EBAFF"/>
<stop offset="1" stop-color="#6DB1FF"/>
</linearGradient>
<linearGradient id="paint10_linear" x1="57.7779" y1="124.809" x2="57.7073" y2="128.734" gradientUnits="userSpaceOnUse">
<stop stop-color="#7EBAFF"/>
<stop offset="1" stop-color="#6DB1FF"/>
</linearGradient>
<linearGradient id="paint11_linear" x1="69.8111" y1="124.701" x2="69.7405" y2="128.626" gradientUnits="userSpaceOnUse">
<stop stop-color="#7EBAFF"/>
<stop offset="1" stop-color="#6DB1FF"/>
</linearGradient>
<clipPath id="clip0">
<rect width="104" height="86" fill="white" transform="translate(56 33)"/>
</clipPath>
<clipPath id="clip1">
<rect width="50" height="42" fill="white" transform="translate(31 110)"/>
</clipPath>
</defs>
</svg>
